<mxfile host="app.diagrams.net" modified="2023-04-09T16:56:59.221Z" agent="Mozilla/5.0 (Windows NT 10.0; Win64; x64) AppleWebKit/537.36 (KHTML, like Gecko) Chrome/112.0.0.0 Safari/537.36" etag="8kzT3DZZ0fNdmxQKCmU7" version="21.1.5" type="github">
  <diagram name="PÃ¡gina-1" id="Bye6twG1TtB-EPc_RB_4">
    <mxGraphModel dx="1120" dy="484" grid="1" gridSize="10" guides="1" tooltips="1" connect="1" arrows="1" fold="1" page="1" pageScale="1" pageWidth="827" pageHeight="1169" math="0" shadow="0">
      <root>
        <mxCell id="0" />
        <mxCell id="1" parent="0" />
        <mxCell id="CZbrLWnbudBdgjRlrlUT-2" style="edgeStyle=orthogonalEdgeStyle;rounded=0;orthogonalLoop=1;jettySize=auto;html=1;" parent="1" source="CZbrLWnbudBdgjRlrlUT-1" edge="1">
          <mxGeometry relative="1" as="geometry">
            <mxPoint x="90" y="120" as="targetPoint" />
          </mxGeometry>
        </mxCell>
        <mxCell id="CZbrLWnbudBdgjRlrlUT-1" value="Inicio" style="strokeWidth=2;html=1;shape=mxgraph.flowchart.terminator;whiteSpace=wrap;" parent="1" vertex="1">
          <mxGeometry x="40" y="40" width="100" height="60" as="geometry" />
        </mxCell>
        <mxCell id="CZbrLWnbudBdgjRlrlUT-6" style="edgeStyle=orthogonalEdgeStyle;rounded=0;orthogonalLoop=1;jettySize=auto;html=1;" parent="1" source="CZbrLWnbudBdgjRlrlUT-3" edge="1">
          <mxGeometry relative="1" as="geometry">
            <mxPoint x="90" y="210" as="targetPoint" />
          </mxGeometry>
        </mxCell>
        <mxCell id="CZbrLWnbudBdgjRlrlUT-3" value="nota1,nota2" style="shape=parallelogram;html=1;strokeWidth=2;perimeter=parallelogramPerimeter;whiteSpace=wrap;rounded=1;arcSize=12;size=0.23;" parent="1" vertex="1">
          <mxGeometry x="40" y="120" width="100" height="60" as="geometry" />
        </mxCell>
        <mxCell id="CZbrLWnbudBdgjRlrlUT-16" style="edgeStyle=orthogonalEdgeStyle;rounded=0;orthogonalLoop=1;jettySize=auto;html=1;entryX=0;entryY=0.5;entryDx=0;entryDy=0;entryPerimeter=0;" parent="1" source="CZbrLWnbudBdgjRlrlUT-14" edge="1" target="CZbrLWnbudBdgjRlrlUT-17">
          <mxGeometry relative="1" as="geometry">
            <mxPoint x="190" y="240" as="targetPoint" />
          </mxGeometry>
        </mxCell>
        <mxCell id="CZbrLWnbudBdgjRlrlUT-14" value="media &amp;lt;- (nota1+nota2/2)" style="rounded=0;whiteSpace=wrap;html=1;absoluteArcSize=1;arcSize=14;strokeWidth=2;" parent="1" vertex="1">
          <mxGeometry x="10" y="210" width="150" height="70" as="geometry" />
        </mxCell>
        <mxCell id="CZbrLWnbudBdgjRlrlUT-18" style="edgeStyle=orthogonalEdgeStyle;rounded=0;orthogonalLoop=1;jettySize=auto;html=1;" parent="1" source="CZbrLWnbudBdgjRlrlUT-17" edge="1">
          <mxGeometry relative="1" as="geometry">
            <mxPoint x="390" y="345" as="targetPoint" />
            <Array as="points">
              <mxPoint x="250" y="345" />
              <mxPoint x="330" y="345" />
            </Array>
          </mxGeometry>
        </mxCell>
        <mxCell id="CZbrLWnbudBdgjRlrlUT-20" style="edgeStyle=orthogonalEdgeStyle;rounded=0;orthogonalLoop=1;jettySize=auto;html=1;" parent="1" source="CZbrLWnbudBdgjRlrlUT-17" edge="1">
          <mxGeometry relative="1" as="geometry">
            <mxPoint x="390" y="145" as="targetPoint" />
            <Array as="points">
              <mxPoint x="250" y="145" />
            </Array>
          </mxGeometry>
        </mxCell>
        <mxCell id="CZbrLWnbudBdgjRlrlUT-17" value="se media &amp;gt;= 6" style="strokeWidth=2;html=1;shape=mxgraph.flowchart.decision;whiteSpace=wrap;" parent="1" vertex="1">
          <mxGeometry x="200" y="215" width="100" height="60" as="geometry" />
        </mxCell>
        <mxCell id="CZbrLWnbudBdgjRlrlUT-24" style="edgeStyle=orthogonalEdgeStyle;rounded=0;orthogonalLoop=1;jettySize=auto;html=1;" parent="1" source="CZbrLWnbudBdgjRlrlUT-21" edge="1">
          <mxGeometry relative="1" as="geometry">
            <mxPoint x="590" y="235" as="targetPoint" />
            <Array as="points">
              <mxPoint x="570" y="145" />
              <mxPoint x="570" y="235" />
            </Array>
          </mxGeometry>
        </mxCell>
        <mxCell id="CZbrLWnbudBdgjRlrlUT-21" value="aprovado" style="shape=display;whiteSpace=wrap;html=1;" parent="1" vertex="1">
          <mxGeometry x="390" y="115" width="100" height="60" as="geometry" />
        </mxCell>
        <mxCell id="CZbrLWnbudBdgjRlrlUT-25" style="edgeStyle=orthogonalEdgeStyle;rounded=0;orthogonalLoop=1;jettySize=auto;html=1;" parent="1" source="CZbrLWnbudBdgjRlrlUT-22" edge="1">
          <mxGeometry relative="1" as="geometry">
            <mxPoint x="590" y="235" as="targetPoint" />
            <Array as="points">
              <mxPoint x="570" y="345" />
              <mxPoint x="570" y="235" />
            </Array>
          </mxGeometry>
        </mxCell>
        <mxCell id="CZbrLWnbudBdgjRlrlUT-22" value="reprovado" style="shape=display;whiteSpace=wrap;html=1;" parent="1" vertex="1">
          <mxGeometry x="390" y="315" width="100" height="60" as="geometry" />
        </mxCell>
        <mxCell id="CZbrLWnbudBdgjRlrlUT-26" value="fim" style="strokeWidth=2;html=1;shape=mxgraph.flowchart.terminator;whiteSpace=wrap;" parent="1" vertex="1">
          <mxGeometry x="590" y="205" width="100" height="60" as="geometry" />
        </mxCell>
      </root>
    </mxGraphModel>
  </diagram>
</mxfile>
